<svg xmlns="http://www.w3.org/2000/svg" xmlns:xlink="http://www.w3.org/1999/xlink" width="500" zoomAndPan="magnify" viewBox="0 0 375 374.999991" height="500" preserveAspectRatio="xMidYMid meet" version="1.0"><defs><g/></defs><g fill="#292929" fill-opacity="1"><g transform="translate(124.525995, 203.944007)"><g><path d="M 11.078125 -28.65625 L 20.1875 -6.59375 L 28.59375 -26.703125 C 29.550781 -29.023438 30.066406 -30.859375 30.140625 -32.203125 C 30.210938 -33.554688 29.769531 -34.234375 28.8125 -34.234375 L 28.8125 -34.890625 L 34.890625 -34.890625 L 34.890625 -34.234375 C 34.597656 -34.234375 34.257812 -34.113281 33.875 -33.875 C 33.488281 -33.632812 33.050781 -33.210938 32.5625 -32.609375 C 32.082031 -32.003906 31.539062 -31.15625 30.9375 -30.0625 C 30.332031 -28.976562 29.671875 -27.617188 28.953125 -25.984375 L 20.546875 -5.71875 L 22.9375 0 L 17.515625 0 L 5.796875 -28.375 C 5.160156 -29.820312 4.476562 -31.160156 3.75 -32.390625 C 3.03125 -33.617188 2.382812 -34.234375 1.8125 -34.234375 L 1.8125 -34.890625 L 10.203125 -34.890625 L 10.203125 -34.234375 C 9.816406 -34.234375 9.644531 -33.832031 9.6875 -33.03125 C 9.738281 -32.238281 10.203125 -30.78125 11.078125 -28.65625 Z M 11.078125 -28.65625 "/></g></g></g><g fill="#292929" fill-opacity="1"><g transform="translate(159.983634, 203.944007)"><g><path d="M 2.453125 -12.8125 C 1.828125 -15.175781 1.679688 -17.515625 2.015625 -19.828125 C 2.359375 -22.148438 3.097656 -24.285156 4.234375 -26.234375 C 5.367188 -28.191406 6.851562 -29.894531 8.6875 -31.34375 C 10.519531 -32.789062 12.617188 -33.828125 14.984375 -34.453125 C 17.492188 -35.128906 19.90625 -35.285156 22.21875 -34.921875 C 24.53125 -34.554688 26.628906 -33.84375 28.515625 -32.78125 C 30.398438 -31.71875 32.015625 -30.363281 33.359375 -28.71875 C 34.710938 -27.082031 35.679688 -25.300781 36.265625 -23.375 C 34.523438 -23.375 32.648438 -23.300781 30.640625 -23.15625 C 28.640625 -23.007812 26.820312 -22.742188 25.1875 -22.359375 C 26.539062 -22.410156 27.78125 -22.179688 28.90625 -21.671875 C 30.039062 -21.171875 31.019531 -20.484375 31.84375 -19.609375 C 32.664062 -18.742188 33.316406 -17.734375 33.796875 -16.578125 C 34.273438 -15.421875 34.566406 -14.210938 34.671875 -12.953125 C 34.859375 -10.347656 34.3125 -8.09375 33.03125 -6.1875 C 31.757812 -4.28125 30.070312 -2.785156 27.96875 -1.703125 C 25.875 -0.617188 23.523438 0.00390625 20.921875 0.171875 C 18.316406 0.347656 15.796875 0.00390625 13.359375 -0.859375 C 10.921875 -1.734375 8.710938 -3.144531 6.734375 -5.09375 C 4.753906 -7.050781 3.328125 -9.625 2.453125 -12.8125 Z M 6.734375 -18.015625 C 6.878906 -16.617188 7.09375 -15.316406 7.375 -14.109375 C 8.289062 -10.640625 9.691406 -7.914062 11.578125 -5.9375 C 13.460938 -3.957031 15.5 -2.601562 17.6875 -1.875 C 19.882812 -1.15625 22.09375 -1 24.3125 -1.40625 C 26.53125 -1.820312 28.457031 -2.65625 30.09375 -3.90625 C 31.738281 -5.164062 32.9375 -6.769531 33.6875 -8.71875 C 34.4375 -10.675781 34.453125 -12.859375 33.734375 -15.265625 C 33.335938 -16.566406 32.707031 -17.75 31.84375 -18.8125 C 30.976562 -19.875 29.914062 -20.65625 28.65625 -21.15625 C 27.40625 -21.664062 25.984375 -21.859375 24.390625 -21.734375 C 22.796875 -21.617188 21.109375 -21.03125 19.328125 -19.96875 C 17.585938 -18.957031 15.882812 -18.242188 14.21875 -17.828125 C 12.550781 -17.421875 11.019531 -17.269531 9.625 -17.375 C 9.09375 -17.414062 8.582031 -17.472656 8.09375 -17.546875 C 7.613281 -17.617188 7.160156 -17.773438 6.734375 -18.015625 Z M 30.6875 -23.734375 C 30.007812 -25.285156 29.140625 -26.769531 28.078125 -28.1875 C 27.015625 -29.613281 25.820312 -30.832031 24.5 -31.84375 C 23.175781 -32.851562 21.71875 -33.578125 20.125 -34.015625 C 18.53125 -34.453125 16.863281 -34.425781 15.125 -33.9375 C 13.488281 -33.507812 12.113281 -32.765625 11 -31.703125 C 9.894531 -30.640625 9.015625 -29.40625 8.359375 -28 C 7.703125 -26.601562 7.242188 -25.082031 6.984375 -23.4375 C 6.722656 -21.800781 6.640625 -20.1875 6.734375 -18.59375 C 7.554688 -18.207031 8.519531 -17.96875 9.625 -17.875 C 10.976562 -17.78125 12.460938 -17.9375 14.078125 -18.34375 C 15.691406 -18.757812 17.34375 -19.445312 19.03125 -20.40625 C 21.0625 -21.5625 23.085938 -22.378906 25.109375 -22.859375 C 27.140625 -23.347656 29 -23.640625 30.6875 -23.734375 Z M 30.6875 -23.734375 "/></g></g></g><g fill="#292929" fill-opacity="1"><g transform="translate(196.816187, 203.944007)"><g><path d="M 10.28125 0 L 1.875 0 L 1.875 -0.65625 C 1.976562 -0.65625 2.125 -0.710938 2.3125 -0.828125 C 2.507812 -0.953125 2.691406 -1.21875 2.859375 -1.625 C 3.023438 -2.039062 3.179688 -2.609375 3.328125 -3.328125 C 3.472656 -4.054688 3.546875 -5.019531 3.546875 -6.21875 L 3.546875 -46.03125 C 3.347656 -47.28125 3.09375 -48.097656 2.78125 -48.484375 C 2.46875 -48.867188 2.21875 -49.0625 2.03125 -49.0625 L 1.8125 -49.71875 L 8.609375 -52.25 L 8.609375 -6.21875 C 8.609375 -5.019531 8.664062 -4.054688 8.78125 -3.328125 C 8.90625 -2.609375 9.0625 -2.039062 9.25 -1.625 C 9.445312 -1.21875 9.640625 -0.953125 9.828125 -0.828125 C 10.023438 -0.710938 10.175781 -0.65625 10.28125 -0.65625 Z M 10.28125 0 "/></g></g></g><g fill="#292929" fill-opacity="1"><g transform="translate(207.670341, 203.944007)"><g><path d="M 10.28125 0 L 1.875 0 L 1.875 -0.65625 C 1.976562 -0.65625 2.125 -0.710938 2.3125 -0.828125 C 2.507812 -0.953125 2.691406 -1.21875 2.859375 -1.625 C 3.023438 -2.039062 3.179688 -2.609375 3.328125 -3.328125 C 3.472656 -4.054688 3.546875 -5.019531 3.546875 -6.21875 L 3.546875 -46.03125 C 3.347656 -47.28125 3.09375 -48.097656 2.78125 -48.484375 C 2.46875 -48.867188 2.21875 -49.0625 2.03125 -49.0625 L 1.8125 -49.71875 L 8.609375 -52.25 L 8.609375 -6.21875 C 8.609375 -5.019531 8.664062 -4.054688 8.78125 -3.328125 C 8.90625 -2.609375 9.0625 -2.039062 9.25 -1.625 C 9.445312 -1.21875 9.640625 -0.953125 9.828125 -0.828125 C 10.023438 -0.710938 10.175781 -0.65625 10.28125 -0.65625 Z M 10.28125 0 "/></g></g></g><g fill="#292929" fill-opacity="1"><g transform="translate(218.524496, 203.944007)"><g><path d="M 9.125 2.3125 C 8.59375 2.695312 8.328125 3.128906 8.328125 3.609375 C 8.328125 4.097656 8.421875 4.535156 8.609375 4.921875 C 9.234375 6.222656 10.003906 7.390625 10.921875 8.421875 C 11.835938 9.460938 12.800781 10.140625 13.8125 10.453125 C 14.832031 10.765625 15.820312 10.570312 16.78125 9.875 C 17.75 9.175781 18.644531 7.71875 19.46875 5.5 L 21.5 0 L 21.28125 0 L 7.671875 -31.40625 C 7.234375 -32.375 6.820312 -33.085938 6.4375 -33.546875 C 6.050781 -34.003906 5.546875 -34.234375 4.921875 -34.234375 L 4.921875 -34.890625 L 14.109375 -34.890625 L 14.109375 -34.234375 C 12.765625 -34.234375 12.476562 -33.363281 13.25 -31.625 L 24.03125 -6.65625 L 33.078125 -30.6875 C 33.367188 -31.507812 33.453125 -32.148438 33.328125 -32.609375 C 33.203125 -33.066406 33.019531 -33.414062 32.78125 -33.65625 C 32.5 -33.945312 32.113281 -34.140625 31.625 -34.234375 L 31.625 -34.890625 L 37.78125 -34.890625 L 37.78125 -34.234375 C 36.957031 -34.234375 36.144531 -33.894531 35.34375 -33.21875 C 34.550781 -32.539062 33.960938 -31.648438 33.578125 -30.546875 L 19.96875 5.640625 C 19.007812 8.347656 17.863281 10.398438 16.53125 11.796875 C 15.207031 13.191406 13.773438 13.960938 12.234375 14.109375 C 10.691406 14.253906 9.0625 13.785156 7.34375 12.703125 C 5.632812 11.617188 3.9375 9.96875 2.25 7.75 L 1.8125 7.234375 L 8.6875 1.8125 Z M 9.125 2.3125 "/></g></g></g><g fill="#292929" fill-opacity="1"><g transform="translate(256.876666, 203.944007)"><g><path d="M 1.8125 -34.890625 L 8.46875 -34.890625 L 8.46875 -16.140625 C 8.757812 -18.359375 9.15625 -20.359375 9.65625 -22.140625 C 10.164062 -23.929688 10.734375 -25.523438 11.359375 -26.921875 C 11.847656 -27.929688 12.40625 -28.921875 13.03125 -29.890625 C 13.65625 -30.859375 14.390625 -31.738281 15.234375 -32.53125 C 16.078125 -33.332031 16.992188 -33.972656 17.984375 -34.453125 C 18.972656 -34.929688 20.070312 -35.171875 21.28125 -35.171875 C 23.257812 -35.171875 24.863281 -34.757812 26.09375 -33.9375 C 27.320312 -33.125 28.285156 -32.066406 28.984375 -30.765625 C 29.679688 -29.460938 30.160156 -27.988281 30.421875 -26.34375 C 30.691406 -24.707031 30.828125 -23.066406 30.828125 -21.421875 L 30.828125 -6.21875 C 30.828125 -5.019531 30.882812 -4.054688 31 -3.328125 C 31.125 -2.609375 31.28125 -2.039062 31.46875 -1.625 C 31.664062 -1.21875 31.863281 -0.953125 32.0625 -0.828125 C 32.257812 -0.710938 32.40625 -0.65625 32.5 -0.65625 L 32.5 0 L 24.09375 0 L 24.09375 -0.65625 C 24.195312 -0.65625 24.34375 -0.710938 24.53125 -0.828125 C 24.726562 -0.953125 24.910156 -1.21875 25.078125 -1.625 C 25.242188 -2.039062 25.398438 -2.609375 25.546875 -3.328125 C 25.691406 -4.054688 25.765625 -5.019531 25.765625 -6.21875 L 25.765625 -21.421875 C 25.765625 -22.285156 25.710938 -23.332031 25.609375 -24.5625 C 25.515625 -25.800781 25.3125 -27.007812 25 -28.1875 C 24.6875 -29.375 24.226562 -30.445312 23.625 -31.40625 C 23.019531 -32.375 22.210938 -33.023438 21.203125 -33.359375 C 20.191406 -33.703125 19.203125 -33.691406 18.234375 -33.328125 C 17.273438 -32.960938 16.394531 -32.414062 15.59375 -31.6875 C 14.800781 -30.96875 14.085938 -30.148438 13.453125 -29.234375 C 12.828125 -28.316406 12.320312 -27.453125 11.9375 -26.640625 C 10.875 -24.316406 10.03125 -21.476562 9.40625 -18.125 C 8.78125 -14.769531 8.46875 -10.800781 8.46875 -6.21875 C 8.46875 -5.019531 8.523438 -4.054688 8.640625 -3.328125 C 8.765625 -2.609375 8.921875 -2.039062 9.109375 -1.625 C 9.304688 -1.21875 9.5 -0.953125 9.6875 -0.828125 C 9.882812 -0.710938 10.03125 -0.65625 10.125 -0.65625 L 10.125 0 L 1.8125 0 L 1.8125 -0.65625 C 1.90625 -0.65625 2.046875 -0.710938 2.234375 -0.828125 C 2.429688 -0.953125 2.613281 -1.21875 2.78125 -1.625 C 2.957031 -2.039062 3.113281 -2.609375 3.25 -3.328125 C 3.394531 -4.054688 3.46875 -5.019531 3.46875 -6.21875 L 3.46875 -28.65625 C 3.46875 -29.8125 3.394531 -30.765625 3.25 -31.515625 C 3.113281 -32.265625 2.957031 -32.832031 2.78125 -33.21875 C 2.613281 -33.601562 2.429688 -33.867188 2.234375 -34.015625 C 2.046875 -34.160156 1.90625 -34.234375 1.8125 -34.234375 Z M 1.8125 -34.890625 "/></g></g></g><g fill="#292929" fill-opacity="1"><g transform="translate(77.940621, 203.963912)"><g><path d="M 3.109375 -18.8125 C 2.191406 -22.238281 1.972656 -25.640625 2.453125 -29.015625 C 2.941406 -32.398438 4.015625 -35.515625 5.671875 -38.359375 C 7.335938 -41.203125 9.5 -43.671875 12.15625 -45.765625 C 14.8125 -47.867188 17.851562 -49.378906 21.28125 -50.296875 C 23.738281 -50.972656 26.195312 -51.265625 28.65625 -51.171875 C 31.125 -51.078125 33.503906 -50.664062 35.796875 -49.9375 C 38.085938 -49.21875 40.234375 -48.191406 42.234375 -46.859375 C 44.234375 -45.535156 46.003906 -43.957031 47.546875 -42.125 L 45.8125 -35.75 L 45.15625 -35.75 C 44.050781 -37.96875 42.675781 -40.078125 41.03125 -42.078125 C 39.394531 -44.085938 37.5625 -45.765625 35.53125 -47.109375 C 33.507812 -48.460938 31.300781 -49.40625 28.90625 -49.9375 C 26.519531 -50.46875 24.023438 -50.394531 21.421875 -49.71875 C 19.109375 -49.09375 17.082031 -48.078125 15.34375 -46.671875 C 13.601562 -45.273438 12.15625 -43.648438 11 -41.796875 C 9.84375 -39.941406 8.945312 -37.90625 8.3125 -35.6875 C 7.6875 -33.46875 7.351562 -31.222656 7.3125 -28.953125 L 8.75 -28.953125 C 11.644531 -28.953125 14.53125 -29.082031 17.40625 -29.34375 C 20.28125 -29.613281 22.875 -29.941406 25.1875 -30.328125 C 27.882812 -30.710938 30.488281 -31.171875 33 -31.703125 L 33.65625 -31.703125 L 33.65625 -25.546875 L 33 -25.546875 C 30.488281 -26.023438 27.882812 -26.484375 25.1875 -26.921875 C 22.875 -27.265625 20.28125 -27.578125 17.40625 -27.859375 C 14.53125 -28.148438 11.644531 -28.296875 8.75 -28.296875 L 7.234375 -28.296875 C 7.234375 -26.898438 7.304688 -25.523438 7.453125 -24.171875 C 7.597656 -22.816406 7.863281 -21.488281 8.25 -20.1875 C 9.3125 -16.132812 11 -12.753906 13.3125 -10.046875 C 15.632812 -7.347656 18.226562 -5.300781 21.09375 -3.90625 C 23.96875 -2.507812 26.957031 -1.75 30.0625 -1.625 C 33.175781 -1.507812 36.109375 -2.03125 38.859375 -3.1875 C 41.609375 -4.34375 44.007812 -6.101562 46.0625 -8.46875 C 48.113281 -10.832031 49.503906 -13.820312 50.234375 -17.4375 L 50.875 -17.296875 C 50.101562 -13.390625 48.535156 -10.117188 46.171875 -7.484375 C 43.804688 -4.859375 41.039062 -2.90625 37.875 -1.625 C 34.71875 -0.34375 31.34375 0.269531 27.75 0.21875 C 24.15625 0.164062 20.71875 -0.566406 17.4375 -1.984375 C 14.15625 -3.410156 11.222656 -5.519531 8.640625 -8.3125 C 6.066406 -11.113281 4.222656 -14.613281 3.109375 -18.8125 Z M 3.109375 -18.8125 "/></g></g></g></svg>